<?xml version="1.0" encoding="UTF-8"?>
<svg version="1.1" xmlns="http://www.w3.org/2000/svg" width="512" height="512">
<path d="M0 0 C0.87325928 0.00902344 1.74651855 0.01804688 2.64624023 0.02734375 C24.65764947 0.6027532 49.01612563 10.60708006 66.60546875 23.703125 C73.08330549 27.50254311 80.92184026 24.8097711 87.9375 23.5 C89.92398042 23.13400133 91.91095654 22.77068215 93.8984375 22.41015625 C95.20627197 22.16664429 95.20627197 22.16664429 96.54052734 21.91821289 C103.93886907 20.74133982 111.20749924 20.27140655 118.6953125 20.234375 C119.6421138 20.22745132 120.5889151 20.22052765 121.56440735 20.21339417 C124.60548073 20.19618921 127.64638023 20.18980658 130.6875 20.1875 C132.23934494 20.18549088 132.23934494 20.18549088 133.82254028 20.18344116 C166.69915963 20.19269993 166.69915963 20.19269993 181.72265625 24.62109375 C189.03848451 26.66869015 189.03848451 26.66869015 196.24609375 24.90234375 C199.51303647 23.02858083 202.57921464 20.88246261 205.65771484 18.71728516 C222.21235037 7.59457311 242.85766627 0.42433854 262.6875 0.125 C263.53562256 0.10703369 264.38374512 0.08906738 265.25756836 0.07055664 C273.20687302 0.08219999 279.72919672 1.76044591 285.5625 7.4375 C294.02208477 19.65915973 297.68074019 37.57850487 297.6953125 52.19140625 C297.69660156 53.45919922 297.69789063 54.72699219 297.69921875 56.03320312 C297.69535156 57.34224609 297.69148438 58.65128906 297.6875 60 C297.69136719 61.28197266 297.69523437 62.56394531 297.69921875 63.88476562 C297.69157057 71.46028625 297.36791298 78.89829363 296.58764648 86.43554688 C296.54421593 91.620227 298.88483786 95.14564437 301.5625 99.4375 C323.26616937 136.6826278 323.87963303 179.96417432 313.60180664 221.16064453 C308.52050337 240.31624817 300.28726684 258.13748273 287.5625 273.4375 C286.80453125 274.35917969 286.0465625 275.28085937 285.265625 276.23046875 C275.21467832 287.87445763 263.1408677 296.39974191 249.5625 303.4375 C248.53898437 303.96988281 247.51546875 304.50226563 246.4609375 305.05078125 C239.9847795 308.2232789 233.35632907 310.61987673 226.5 312.8125 C225.67798096 313.07562988 224.85596191 313.33875977 224.0090332 313.60986328 C220.25633425 314.76603511 217.55732657 315.4375 213.5625 315.4375 C213.8446788 316.52514648 214.1268576 317.61279297 214.41758728 318.73339844 C217.17334507 329.85408314 218.17352097 340.25986431 218.12890625 351.6875 C218.13416292 353.36417988 218.1404467 355.04085682 218.14768982 356.7175293 C218.15798003 360.19317783 218.1536913 363.6684139 218.13891602 367.14404297 C218.12161575 371.57321923 218.14542016 376.00111157 218.18040562 380.43014526 C218.20245218 383.8773845 218.20092285 387.32431865 218.1926403 390.77160645 C218.19182724 392.4045148 218.19856566 394.03744701 218.21341133 395.67028809 C218.29369662 406.08002087 217.78739419 414.9301791 210.25 422.875 C203.23072108 426.95597612 197.63260779 428.36272179 189.5625 426.4375 C183.50270005 424.15920312 179.29589721 419.93672549 176.44273376 414.17701721 C175.37384654 410.85036121 175.30356714 408.03771587 175.29125977 404.54272461 C175.28341965 403.53178741 175.28341965 403.53178741 175.27542114 402.50042725 C175.26521387 401.04254916 175.25940647 399.58463496 175.25753975 398.12672234 C175.25385616 395.8083158 175.23707167 393.49032953 175.21678162 391.17201233 C175.16158781 384.58228436 175.13084967 377.99249332 175.10620117 371.40258789 C175.09018849 367.3636613 175.0598214 363.32502931 175.02143669 359.28625679 C175.00989827 357.75831836 175.00385733 356.23032689 175.00375557 354.70234489 C175.00228647 338.5020843 172.08597424 326.08841612 161.89453125 313.26171875 C158.30671735 308.34820236 157.21476276 303.18533471 157.7734375 297.1640625 C158.76914669 291.65948149 160.54957102 287.38300901 164.5625 283.4375 C172.02675319 278.4588817 179.95949652 277.19028809 188.6875 275.9375 C209.55736534 272.61278478 230.67951182 267.21632323 246.5625 252.4375 C247.31660156 251.78523437 248.07070313 251.13296875 248.84765625 250.4609375 C268.0498772 232.87262535 274.54801625 204.44209372 275.70288086 179.39257812 C276.39459123 156.49886236 274.04108808 137.53781815 261.4375 117.8125 C251.63376061 102.46018152 251.32292055 86.07793754 253.91674805 68.59619141 C254.95436198 60.8401934 254.27328493 53.19850306 253.5625 45.4375 C237.96368392 52.17532195 223.09363961 59.49872675 208.9921875 69.02734375 C199.18156132 74.72129238 188.87311618 71.46443705 178.4375 69 C145.8295102 61.73558652 111.50045165 62.16484504 79.17895508 70.89916992 C71.52309541 72.8527138 63.65047687 73.51894863 56.55078125 69.46875 C55.31222398 68.64464258 54.08706393 67.80009966 52.875 66.9375 C51.49669171 66.02187296 50.11642659 65.1091858 48.734375 64.19921875 C48.04279297 63.73692871 47.35121094 63.27463867 46.63867188 62.79833984 C35.5774759 55.54820974 23.87715316 50.17742219 11.5625 45.4375 C10.70407164 55.56463463 10.51540036 64.79778787 12.06640625 74.86328125 C14.50535843 92.43525954 10.18775356 106.72372945 1.54980469 121.71191406 C-14.23768684 149.30488886 -13.93830792 180.1784268 -6.4375 210.4375 C-0.76061338 231.18287298 10.5374795 249.70952346 29.44921875 260.75390625 C46.7447982 270.47555227 65.1537242 274.68747762 84.58813477 277.94458008 C86.03917603 278.18857544 86.03917603 278.18857544 87.51953125 278.4375 C88.38296143 278.57542969 89.2463916 278.71335937 90.13598633 278.85546875 C96.30988311 280.33635917 101.1320499 284.15988446 104.5625 289.4375 C107.38972111 295.45046663 107.77375288 302.27427154 105.91015625 308.6796875 C104.1320977 312.48000149 101.69685004 315.56630092 99.0625 318.8125 C92.6674335 326.74457819 90.44028499 335.40506136 90.43652344 345.45581055 C90.4346553 346.14273483 90.43278717 346.82965912 90.43086243 347.53739929 C90.42687265 349.02313044 90.4247849 350.50886766 90.42440033 351.99460411 C90.42096211 355.16636091 90.39956862 358.33791688 90.37916946 361.50960255 C90.34128999 367.40511066 90.30987845 373.30040095 90.31201172 379.19604492 C90.3128031 383.3064472 90.28925662 387.41610752 90.2501297 391.52631569 C90.23973404 393.08381621 90.23809781 394.64140304 90.24578094 396.1989193 C90.28558367 405.16411946 89.95973313 412.83612826 84.5625 420.4375 C82.24609375 422.69140625 82.24609375 422.69140625 80 424 C79.25621094 424.45503906 78.51242188 424.91007812 77.74609375 425.37890625 C71.95043227 428.18860976 65.59676162 428.30465465 59.5 426.375 C54.21072326 424.13642815 50.24001199 420.52830048 47.49609375 415.47265625 C44.91133653 408.76727157 44.85560458 401.54275921 44.5625 394.4375 C43.89943848 394.45321045 43.23637695 394.4689209 42.55322266 394.48510742 C4.81539121 395.25759542 -28.46201809 385.98220219 -56.75 360.07421875 C-59.96068881 356.96014789 -62.9305129 353.62145199 -65.9375 350.3125 C-73.91912569 341.56775202 -82.01401257 335.43217983 -92.8125 330.375 C-99.47825263 327.19201495 -103.68120851 323.10280397 -106.875 316.4375 C-108.35224185 308.55887682 -107.42613519 302.43223269 -103.4375 295.4375 C-98.6939733 289.85552912 -93.30279315 287.51562694 -86.0625 286.875 C-68.53154253 287.27103067 -51.66533263 302.1984409 -39.4375 313.4375 C-37.5999738 315.40273073 -35.8702551 317.41819388 -34.1484375 319.484375 C-20.54478983 335.01365317 -0.38365301 348.2366347 20.4140625 350.31640625 C28.85691441 350.79227609 37.16605973 350.36309184 45.5625 349.4375 C45.51609375 348.3959375 45.4696875 347.354375 45.421875 346.28125 C45.10356201 335.69609971 46.51070884 326.56018228 49.5625 316.4375 C48.881875 316.29054688 48.20125 316.14359375 47.5 315.9921875 C14.03762092 308.24956255 -16.09195917 288.77916928 -34.4375 259.4375 C-55.25374066 225.56210209 -63.07311274 177.15330721 -53.94238281 138.4375 C-49.88970275 122.38355656 -43.34778281 107.4939525 -34.5625 93.4375 C-32.42722673 87.74343795 -33.12876121 81.70480051 -33.9375 75.765625 C-36.65863557 54.79309105 -35.05918108 27.85609453 -23.55078125 9.4140625 C-17.13459737 1.62388246 -9.79805979 -0.12306463 0 0 Z " fill="#000000" transform="translate(149.4375,42.5625)"/>
</svg>
